<svg xmlns="http://www.w3.org/2000/svg" viewBox="0 0 1092.11 146.45"><defs><style>.cls-1{fill:#fff;}</style></defs><g id="Layer_2" data-name="Layer 2"><g id="horizontal_sig_with_tag" data-name="horizontal sig with tag"><path class="cls-1" d="M52.57,76.71H24.76c4.66-12,8.65-21.56,15.57-37.53Zm68.35,36.73H147v-3.19h-5.33c-4.92,0-5.58,0-5.58-20.1v-19c0-8-3.47-16.5-16.11-16.5-8.65,0-15.7,4.92-22.63,10.64V54.62c-2,0-5,.53-9.17,1.06-3.2.4-7.46,1.07-9.32,1.07v3.19h7c2.27,0,3.73,0,3.73,11.85v36.72c0,1.34-1.33,1.34-2.53,1.34H77.06c-2.93,0-4.66-4-6.52-8.39C65.62,89.75,46.85,36.25,46.85,30.93c0-2.8,2.26-2.53,2.26-4.13,0-.53-.27-.93-.8-.93a31.9,31.9,0,0,0-6.92,1.46L7.72,107.19c-1.07,2.66-1.47,2.66-7.72,2.66v3.59H27v-3.59H18.37c-3.2,0-3.33-2.26-3.33-3.33,0-3.59,3.33-13.84,8-25.42H54.3c4.12,11.32,9.45,26.36,9.45,27.42s-.27,1.33-2.53,1.33H54.57v3.59h53.71v-3.19H103c-4.93,0-5.6,0-5.6-20.1V69.39c5.86-4.92,12-8.79,20-8.79,6.12,0,11,3.07,11,13.58v34.74c0,1.33-1.34,1.33-2.53,1.33h-4.93Zm73.77-12c-5.06,4.53-9.71,7.72-16.63,7.72-14.11,0-19.7-12.24-19.7-24.75,0-14.11,6.92-26.22,21.82-26.22a24.18,24.18,0,0,1,14.51,5.19ZM204,114.51c4-.53,8-1.07,9.31-1.07v-3.19H208c-4.92,0-5.59,0-5.59-20.1V19.62a99,99,0,0,1-18.5,3.06v3.19H191c2.27,0,3.73,0,3.73,11.84V59.28a28.37,28.37,0,0,0-15.84-4.66c-18.23,0-28.61,14.9-28.61,31.94,0,13.84,6.92,29,22.62,29,7.72,0,13.31-3.73,21.83-10v10c1.46,0,5.32-.53,9.32-1.06m55.36-57a8.22,8.22,0,0,0-6.26-2.92c-4.12,0-7.71,2.39-17.69,11.44V54.62c-2,0-5.06.53-9.19,1.06-3.19.4-7.46,1.07-9.32,1.07v3.19H224c2.27,0,3.73,0,3.73,11.85v37.13c0,1.33-1.32,1.33-2.52,1.33h-4.92v3.19h26.08v-3.19H241c-4.93,0-5.59,0-5.59-20.1V70.32c5.72-6,9.17-7.85,13.43-7.85,7.06,0,5.73,4,7.73,4,.93,0,1.33-.4,2.79-8.92m8.95,22.89c0-9.84,6.74-22.22,16.19-22.22,15.93,0,17.68,17.11,17.68,22.14Zm0,3.47,40.8-.09c0-15.94-8.67-29.19-23.37-29.19-17,0-25.16,17.16-25.16,32.21s7.86,28.74,24.36,28.74a32.54,32.54,0,0,0,24.36-10.65l-1.86-2a23.58,23.58,0,0,1-17,6.78c-15.84,0-21.43-12-22.09-25.81m131.49-24h4V56.75h-21v3.19h5.86c1.87,0,2.8.27,2.8,2.13,0,3.33-.27,5.06-15,39.79-6.39-16-16.11-39.52-16.11-41.12,0-.8.93-.8,2.13-.8h6.92V56.75H345.38v3.19h3.46c2.92,0,3.19,0,7.45,11.32-4.66,10.64-7.59,18.49-13.84,30.6-13.57-34.33-16-39.52-16-41.12,0-.8.93-.8,2.12-.8h6.53V56.75H310.9v3.19h3.6c2.52,0,3.59,2.13,6.39,8.12l17.56,45.38c.67,1.74.94,2.53,1.87,2.53s1.06-.53,1.86-2.39L358,75.64l14.24,37.94c.8,1.86,1.06,2.39,1.86,2.39s.93-.66,1.47-1.86c9.72-24.49,19.7-48.31,20.76-50.57,1.73-3.47,2-3.6,3.46-3.6m43.79,6.52c0-.93-.4-5.45-.8-9-4.26-2-9.45-2.79-14.91-2.79C416,54.62,407,62.87,407,71.92c0,20.76,33.4,11.58,33.4,27,0,8.26-8.39,12.25-15.17,12.25s-16.24-3.59-17.17-8.52c-.26-.93-.53-2.26-1.6-2.26s-1.46.4-1.46,1.2c0,1.33.93,6.39,1.73,11.44a43.77,43.77,0,0,0,14.9,2.53c11.32,0,25.29-5.32,25.29-18.63,0-21-34.07-13.31-34.07-27.55,0-6.92,7.72-10.38,13.31-10.38,11.58,0,14.37,6.12,15,7.19.39.66.53,1.19,1.47,1.19a.84.84,0,0,0,.93-.93"/><path class="cls-1" d="M653.91,32.53h5.46v-3.6H635v3.6h7.45c2.93,0,4.39.4,4.39,19.43V81.5c0,26.75-19.17,29.41-28,29.41-8.25,0-24.48-3.06-24.48-26.08v-51c0-1.32,1.46-1.32,3.05-1.32h5.32v-3.6H574.2v3.6H582c3.33,0,3.73,2.66,3.73,17.83V86.83c0,24,18.77,29.14,30.88,29.14,16.5,0,34.6-8.25,34.6-33.67V33.85c0-1.06,1.2-1.32,2.66-1.32M704,113.44H730v-3.19h-5.32c-4.93,0-5.59,0-5.59-20.1v-19c0-8-3.47-16.5-16.1-16.5-8.66,0-15.71,4.92-22.64,10.64V54.62c-2,0-5,.53-9.17,1.06-3.2.4-7.46,1.07-9.32,1.07v3.19H669c2.27,0,3.73,0,3.73,11.85v37.13c0,1.33-1.33,1.33-2.53,1.33h-4.93v3.19h26.09v-3.19H686c-4.92,0-5.59,0-5.59-20.1V69.39c5.86-4.92,12-8.79,20-8.79,6.12,0,11,3.07,11,13.58v34.74c0,1.33-1.32,1.33-2.52,1.33H704Zm46.31-78.25a4.93,4.93,0,1,0-4.92,5.06,5,5,0,0,0,4.92-5.06m-15.44,78.25h26.09v-3.19h-5.33c-4.92,0-5.58,0-5.58-20.1V54.62c-2,0-5.06.53-9.19,1.06-3.2.4-7.46,1.07-9.32,1.07v3.19h7.06c2.26,0,3.72,0,3.72,11.85v37.13c0,1.33-1.33,1.33-2.52,1.33h-4.93Zm82.92-53.5h4.39V56.75H799.51v3.19h6.12c1.6,0,3.33,0,3.33,2.13,0,5.46-5.06,19.83-15,40.86-11.71-28.35-17.17-40.59-17.17-42.19,0-.8.94-.8,2.13-.8h6.52V56.75H761.18v3.19h3.59c2.53,0,3.6,2.13,6.4,8.12,4.39,9.32,16.76,40.46,18.09,45.12,1.2,2.79,1.46,2.79,2,2.79s1.08-.53,1.47-1.33c6.79-16.64,17.7-42.72,22.49-52.7.93-1.87,1.33-2,2.54-2m14,20.49c0-9.84,6.75-22.22,16.21-22.22,15.92,0,17.66,17.11,17.66,22.14Zm0,3.47,40.81-.09c0-15.94-8.66-29.19-23.37-29.19-17,0-25.15,17.16-25.15,32.21s7.85,28.74,24.36,28.74a32.54,32.54,0,0,0,24.35-10.65l-1.86-2a23.6,23.6,0,0,1-17,6.78c-15.83,0-21.43-12-22.1-25.81m88-26.36a8.24,8.24,0,0,0-6.26-2.92c-4.13,0-7.71,2.39-17.69,11.44V54.62c-2,0-5.06.53-9.19,1.06-3.2.4-7.46,1.07-9.32,1.07v3.19h7c2.27,0,3.73,0,3.73,11.85v37.13c0,1.33-1.33,1.33-2.52,1.33h-4.93v3.19h26.09v-3.19h-5.33c-4.92,0-5.58,0-5.58-20.1V70.32c5.72-6,9.18-7.85,13.43-7.85,7.06,0,5.72,4,7.72,4,.94,0,1.33-.4,2.8-8.92m9.71,11.85c0-6.92,7.73-10.38,13.32-10.38,11.57,0,14.36,6.12,15,7.19.39.66.53,1.19,1.46,1.19a.84.84,0,0,0,.93-.93c0-.93-.4-5.45-.8-9-4.26-2-9.45-2.79-14.91-2.79-11.84,0-20.89,8.25-20.89,17.3,0,20.76,33.4,11.58,33.4,27,0,8.26-8.38,12.25-15.18,12.25s-16.23-3.59-17.16-8.52c-.27-.93-.53-2.26-1.59-2.26s-1.46.4-1.46,1.2c0,1.33.92,6.39,1.72,11.44a43.87,43.87,0,0,0,14.91,2.53c11.31,0,25.29-5.32,25.29-18.63,0-21-34.08-13.31-34.08-27.55m56.43-34.2a4.93,4.93,0,1,0-4.92,5.06,5,5,0,0,0,4.92-5.06m-15.44,78.25h26.09v-3.19h-5.32c-4.93,0-5.59,0-5.59-20.1V54.62c-2,0-5.06.53-9.19,1.06-3.2.4-7.45,1.07-9.32,1.07v3.19h7.06c2.26,0,3.72,0,3.72,11.85v37.13c0,1.33-1.33,1.33-2.52,1.33h-4.93Zm121.72-53.5V56.75h-22.22v3.19h6c1.86,0,3.19,0,3.19,2.13,0,2.4-1.07,10.78-15.18,41-5.19-12.24-17.56-40.72-17.56-42.32,0-.8.93-.8,2.12-.8H1055V56.75h-40.54V44.1h-1.86L1001.8,56.88c-.79.8-1.33,1.46-1.33,2.13,0,.93.54.93,3.32.93h2.94v43.39c0,7.19,4,12.24,11.57,12.24,4.66,0,11.58-2.26,15.71-4.66l-1.2-2.66a23.7,23.7,0,0,1-9,2.13c-8.66,0-9.32-6.39-9.32-12.38V59.94h19.91c2.53,0,3.72,2,6.39,8.12l18.89,44.05c-12.64,27.68-20.35,29-24.61,31.14-1.61.67-2.14,1.07-2.14,1.6a1.55,1.55,0,0,0,1.61,1.6,53.72,53.72,0,0,0,13.7-1.73c5.85-7.72,33.54-74.8,35.8-80.39,1.87-4.39,1.33-4.39,3.6-4.39Z"/><path class="cls-1" d="M524.44,99.55H510.21c12.52-5.37,17.91-21.49,9.53-33.34-6-8.52-20.05-16.11-9-41.55-1.54,26,28.64,28,28.64,51.92,0,16.08-14.93,23-14.93,23m-2.62,8H501l-3.26-4.34h27.31Zm-24.3-66.4c-3.63,12.66-2.32,21.16,5.33,28.15,13.88,12.69,10.83,25.49,3.76,30.29h-8C470.1,84,491.1,49.06,497.52,41.11m5.13,5.23c.26,8.59,2.38,11.34,8.59,16.93,13.59,12.26,7.06,24.86,4.41,27.26,2.15-11.24-.63-15.92-10.87-25.74-6.22-6-4.41-14.14-2.13-18.45M511.43,0s-40.67,27.83-40.67,74.68v38.76h33v-2.32h15.25v2.32H552.1V74.49C552.1,27.65,511.43,0,511.43,0"/></g></g></svg>